<svg xmlns="http://www.w3.org/2000/svg" viewBox="0 0 144.57 55.75"><defs><style>.cls-1{fill:#f44336;}</style></defs><title>logoWild</title><g id="Слой_2" data-name="Слой 2"><g id="Слой_1-2" data-name="Слой 1"><path class="cls-1" d="M31.17,35.69l-1.5.19c2.9.75.85,3.21,1.61,4.29h4l2.56-2.74v-4H31.29Z"/><path class="cls-1" d="M143.37,40.24a6.76,6.76,0,0,1-.42-.63h1.62c-.86-3.17.54-6.54-1.68-9.52l1.47.22a37.45,37.45,0,0,0,0-4c-.18-1.68-.57-3.33-.87-5l-.41-.44h0l.41.44,0-.46,0-.46,0-.5-.23-1.59c1.47-.18,1.07-1,.93-2.06a33.54,33.54,0,0,1-.19-5.31c.06-2.4.27-4.8.38-7.2,0-1-.19-1.49-1.54-1.32a67.74,67.74,0,0,1-7.26.27c-2.85.07-5.7.12-8.55.15a13.35,13.35,0,0,1-2-.22,15.4,15.4,0,0,0-2.44-.36c-2.8.07-5.67.68-8.37.23s-5.09.1-7.65-.15c-3.91-.38-7.89-.12-11.84-.12s-8,.47-12,.07c-1-.1-2.13.31-3.09.06a3.87,3.87,0,0,0-.79-.12c0-.72-.08-1.45-.08-2.19l-3,.14.77,2a2.53,2.53,0,0,0-.72.31,4.88,4.88,0,0,1-.85,0c-.39-.06-.78-.1-1.18-.14V.11L70.87.3c0,.61,0,1.22,0,1.83H69.12L69.22.22,66.39,0V2.18l-1.9,0c-2.38,0-4.77,0-7.15,0-4.22-.09-8.42.46-12.65.07a44.87,44.87,0,0,0-6.38.19c-2.45.12-4.9.43-7.35.4-3.6,0-7.2-.39-10.79-.4-3.26,0-6.53.39-9.79.32S3.79,2.26,0,1.94A42.23,42.23,0,0,1,.89,7.71c0,2.2-.49,4.41-.49,6.61S1,18.52.9,20.6c-.12,2.83-1.32,5.66.16,8.46.06.12-.14.36-.16.55-.2,1.61-.41,3.23-.54,4.85,0,.07.49.17.59.18C-.19,40.85.58,47,.66,53H3.33L2.27,51.44c.9-.08,2.08.05,2.26.55.56,1.52,1.68,1.15,2.72,1.18.87,0,1.74,0,2.73,0-.41-2,.43-2.67,2.32-2.31l-2,1.77.41.89c3.27-1.69,6.56.07,10-.64s7.07.2,10.63.27,7.35,0,11,0H52.8c0-.47-.09-.75-.1-1,3.16,1.54,6.19.19,8.79,1l.21-1a6.93,6.93,0,0,0,2,.72c.81,0,1.63-.09,2.44-.17-.15.83-.3,1.66-.4,2.49h3.33c0-.89,0-1.75,0-2.6l2.12.05a13.27,13.27,0,0,0,.65,1.93c.21.49,1.18.67,2.12,1.17,0-1,0-2,0-3l1.93.06v.1c-.09,2.47.79,2.79,2.9,2.33,0-.88,0-1.74,0-2.6a5.27,5.27,0,0,1,1.68-.29c2.25.15,4.47.67,6.72.77,2.94.14,5.89.08,8.84,0,1.41,0,2.81-.3,4.19-.45,5.45,1,11.07-.31,16.59.52l.26-1,.68.54c6.29.25,12.88.79,19.7-.09,1.86,1.27,4.4-.21,6.59.28,0-1,.09-2,.16-3.13.17-2.83-.34-5.67.1-8.5C144.36,41,143.69,40.61,143.37,40.24Zm-.32-19.93.39.08h0l-.39-.08ZM24.41,44.16H9.26V35.41l1.51.2.06-.35-1.67-.42.38-.41-.61-5.28c3.46-.84,4.3-.29,4.49,3a53,53,0,0,1,0,6.41c-.07,1.13-.06,1.54,1.3,1.4a19.34,19.34,0,0,1,3.85.42,2.85,2.85,0,0,0,1.16-.09C23.5,39,24.84,40.12,24.41,44.16Zm0-17.56c-1.55-.08-3.34.3-4.57-.36s-2-2.37-2.94-3.67L14.1,26.14l-4.9.39V11.34h4.16c0,2.1,0,4.19,0,6.28a4.44,4.44,0,0,0,.42,1.25c.31-.17.86-.32.89-.53a2.15,2.15,0,0,1,2.66-1.79c.93.26,1.54,1.64,2.57,2.88l1.67-1.15-.39-.57-.9.52V11.15h4.07V23.91l-1.3.23,1.7,1.9ZM41.9,39.39c-.79,3.24-3.82,5.09-7.49,4.93-2.51-.11-5,0-7.61,0,0-3.74-.07-7.14.05-10.54,0-.78.69-1.54,1.07-2.33l-1.3-2.31A9.25,9.25,0,0,0,29,29c1.85-.71,3.63.34,5.58,0a24.77,24.77,0,0,1,6.16-.14c.57.05,1.53,1,1.52,1.47-.07,2.22-.48,4.42-.64,6.63C41.53,37.76,42.08,38.65,41.9,39.39ZM37,15.43c0,2.29-.58,4.56.15,6.25.88,2,3.16.76,5,.34v4.41c-2.94-.34-6,.72-9.2-.48-.74.13-1.81.41-2.9.51-3.45.31-3.5.22-3.13-4.27a30.49,30.49,0,0,0,3.8.32,1.74,1.74,0,0,0,1.31-1,17.81,17.81,0,0,0,.37-4c0-1.38-.38-2.57-2.33-2a9.11,9.11,0,0,1-2.62,0,16.44,16.44,0,0,1-.6-2.16,13.82,13.82,0,0,1,0-1.92H42.15l.17,3.78Zm44.8,15.84c-1.27-.17-3,.45-2.92-1.92,2.31-.15,4.39-.27,6.48-.34,2.27-.08,4.51,0,6.76.09a19.94,19.94,0,0,1-.31,2.15c-1.27-.1-2.53-.18-3.8-.19a31.72,31.72,0,0,0-5.17.78C83.58,30,81.9,31.28,81.81,31.27ZM69.08,46.93c0-1.14,0-2.28,0-3.41,0-1.83.31-3.78-.22-5.45s1.22-3.13-.16-4.75l2.38,1.11V46.06a1,1,0,0,1,.34-.23,5.74,5.74,0,0,1,.85-.08,9.7,9.7,0,0,0-.72,1.42A20,20,0,0,1,69.08,46.93Zm1.79-18.58h2.22l-2.22,2.22H68.65V28.35Zm-2.22-2.22V23.91h2.22Zm7.94,4.79-3.86.49C74.15,29.15,75.3,28.43,76.59,30.92Zm-4.18-4.37,1.88-2.78L76.67,26Zm19.8-.15H77.77l-.17-.62a19.2,19.2,0,0,0,1.57-1.44c.35-.39,1,.69,1.4-.68s.83.57,1.42.66a4.47,4.47,0,0,0,.66,0c1.67,0,3.34.1,5,0,1.43-.12,2.85-.37,4.26-.61A20,20,0,0,1,92.21,26.41Zm-.8-4.82a78.18,78.18,0,0,0-8-.14,20.53,20.53,0,0,0-3.59.74l-1.23-1V10.13l-.3.63a2.15,2.15,0,0,1-.06-1.41c.06-.37.1-.75.14-1.12A20,20,0,0,1,91.42,21.58Zm-15.56-14c.08.27.18.53.28.8v13c-1.22-.35-2.61-.48-2.65-.8-.27-1.9.59-3.73-.15-5.83-.54-1.53.49-3.57.56-5.39A5.22,5.22,0,0,0,73,7.31,20,20,0,0,1,75.86,7.61Zm-9.47.56v3.34l2.29-1.4.14-2.53a20,20,0,0,1,2.07-.25c0,.53,0,1.06,0,1.59s.67,1.07.73,1.16c-1.44,3.89-.11,7.77-.89,11.42-1.31-.39-3-1.46-3.72-1-1.61,1-3.21.47-4.76.82s-2.77.78-4.23,1.19c.43-2.06-1-.92-1.85-1s-2-.19-2.95-.27A20,20,0,0,1,66.39,8.17Zm-14,21a6.8,6.8,0,0,1,2-.36l1-2.29-3-.16a20.06,20.06,0,0,1,.2-2.1c2-.05,3.94-.12,5.9-.13a53.38,53.38,0,0,0,5.84.15c1.7-.2,1.84.37,1.54,2H58.43l.42.87-3.48-.59-1,2.29c1.76,0,3.52-.16,5.27-.08,2.21.11,4.42.39,6.63.59-.14,1.43-.84,1.91-2.63,1.76A87.44,87.44,0,0,0,54,31a8,8,0,0,0-1.3.16A19.93,19.93,0,0,1,52.43,29.17ZM52.71,52s.12-.05,0,0Zm.68-18.38h6c1.21.05,2.42.06,3.62.17s3.11-.75,3.26,1.43-.09,4.56-.09,6.85a26.81,26.81,0,0,0,.36,4.26A20,20,0,0,1,53.39,33.65ZM74,47.11c0-4,0-7.8,0-11.64,0-.54.63-1.08,1-1.62.29.57.83,1.14.84,1.72.06,3.76.16,7.51.16,11.27A20,20,0,0,1,74,47.11Zm4.88-1c0-2.51,0-5-.11-7.52a9.37,9.37,0,0,1,.07-2.76c.27-1.15-.13-2-1.77-1.92l1.74-.8c.67,2.09,2,.85,3.13.61,2.06.14,4.13.36,6.19.39l2.93,0A20,20,0,0,1,78.85,46.07Zm38.73-13.4c-.12,3.75,0,7.51,0,11.35-3.38,0-6.83.07-10.27,0-2.67-.07-5.22-3.78-4.6-6.24.18-.71-.46-1.58-.5-2.39-.08-2,0-3.92,0-6.06,1.3-.18,2.37-.39,3.45-.43.31,0,.91.47.91.73,0,2.21-.08,4.42-.19,6.62,0,.15-.41.28-.71.47,2.18,2.47,4.3,4.59,7.92,2.68V28.92C116.91,28.63,117.69,29.43,117.58,32.68Zm-.11-17.12h-5.11c0,2.79,0,5.43,0,8.07,0,2.95,0,2.95-2.86,2.95h-1.69V15.52h-5.24a7.27,7.27,0,0,1-.33-1.17c-.3-2.91.06-3.3,3-3.3s5.94,0,8.91,0a11.19,11.19,0,0,1,1.84.6c.19,0,.49-.45.7-.42s.93.32.94.5C117.65,13,117.54,14.2,117.47,15.56Zm17.67,28.27c-3.06,1.21-4.7.81-5.54-2.09-.78-2.71-2.9-2-4.33-1.92-1.66.12-1,2-1,3.15,0,.37,0,.73,0,1.34h-4.62l1-6.51s-.65-.2-.65-.42c-.07-2.77,0-5.55,0-8.62a110.53,110.53,0,0,0,15.43-.06c0,3.21,0,6.17,0,9.14,0,1.6-.43,2-2.1,2Zm-7.39-17.26H120c-.31-1.68.62-3.06-.08-4.55-.2-.43.47-1.27.68-1.78a11.7,11.7,0,0,1-.41-1.85c-.17-2.37-.27-4.74-.4-7.34,4.76,0,9.32,0,13.89,0a9.1,9.1,0,0,1,1.64.31c-.31.31-.64.6-.92.93a.55.55,0,0,0,0,.48c1.39,3.09,1,6.23.54,9.46-.2,1.29.41,2.71.69,4.32Z"/><path class="cls-1" d="M125.41,33A2.21,2.21,0,0,0,124,34.35c-.1.27.69,1.25,1.12,1.29,1.87.15,3.75.06,5.58.06l.68-2.73C129.36,33,127.37,32.87,125.41,33Z"/><path class="cls-1" d="M124.4,16.65c-.18,1.9-.07,3.82-.07,5.59,1.92,0,3.53.09,5.13-.05a2,2,0,0,0,1.45-1.06c.24-.9,0-1.93.14-2.87a12.61,12.61,0,0,1,1-2.41c-2.06-.23-4.13-.57-6.2-.62C125.34,15.21,124.45,16.11,124.4,16.65Z"/><path class="cls-1" d="M66.09,16.81c0,.46,1.13,1.13,1.79,1.19.35,0,1-1,1.15-1.62a8.07,8.07,0,0,0,0-2.48c-.09-1.26-.24-2.52-.36-3.78l-2.29,1.4A42,42,0,0,0,66.09,16.81Z"/></g></g></svg>